<svg width="32" height="33" viewBox="0 0 32 33" fill="none" xmlns="http://www.w3.org/2000/svg">
<path d="M23.1252 7.36529C22.8088 7.36529 22.4994 7.45913 22.2363 7.63493C21.9732 7.81075 21.7681 8.06063 21.647 8.35299C21.5259 8.64535 21.4942 8.96706 21.556 9.27743C21.6177 9.5878 21.7701 9.87289 21.9938 10.0967C22.2176 10.3204 22.5027 10.4728 22.8131 10.5345C23.1234 10.5963 23.4451 10.5646 23.7375 10.4435C24.0299 10.3224 24.2797 10.1173 24.4556 9.8542C24.6314 9.59108 24.7252 9.28174 24.7252 8.96529C24.7252 8.54094 24.5566 8.13397 24.2566 7.83392C23.9565 7.53386 23.5496 7.36529 23.1252 7.36529ZM29.2585 10.592C29.2326 9.48568 29.0254 8.39116 28.6452 7.35195C28.3062 6.4628 27.7785 5.65766 27.0985 4.99195C26.4383 4.30852 25.6313 3.78419 24.7385 3.45862C23.7021 3.06683 22.6063 2.8549 21.4985 2.83195C20.0852 2.75195 19.6319 2.75195 16.0052 2.75195C12.3785 2.75195 11.9252 2.75195 10.5119 2.83195C9.40408 2.8549 8.30833 3.06683 7.27187 3.45862C6.38078 3.78748 5.57445 4.31137 4.91188 4.99195C4.22844 5.65219 3.70411 6.45921 3.37854 7.35195C2.98676 8.38841 2.77482 9.48416 2.75187 10.592C2.67187 12.0053 2.67188 12.4586 2.67188 16.0853C2.67188 19.712 2.67187 20.1653 2.75187 21.5786C2.77482 22.6864 2.98676 23.7822 3.37854 24.8186C3.70411 25.7114 4.22844 26.5184 4.91188 27.1786C5.57445 27.8592 6.38078 28.3831 7.27187 28.712C8.30833 29.1037 9.40408 29.3157 10.5119 29.3386C11.9252 29.4186 12.3785 29.4186 16.0052 29.4186C19.6319 29.4186 20.0852 29.4186 21.4985 29.3386C22.6063 29.3157 23.7021 29.1037 24.7385 28.712C25.6313 28.3864 26.4383 27.862 27.0985 27.1786C27.7815 26.5154 28.3097 25.7095 28.6452 24.8186C29.0254 23.7794 29.2326 22.6849 29.2585 21.5786C29.2585 20.1653 29.3385 19.712 29.3385 16.0853C29.3385 12.4586 29.3385 12.0053 29.2585 10.592ZM26.8585 21.4186C26.8488 22.265 26.6955 23.1036 26.4052 23.8986C26.1923 24.4789 25.8504 25.0032 25.4052 25.432C24.9727 25.8726 24.4495 26.2139 23.8719 26.432C23.0768 26.7223 22.2382 26.8756 21.3919 26.8853C20.0585 26.952 19.5652 26.9653 16.0585 26.9653C12.5519 26.9653 12.0585 26.9653 10.7252 26.8853C9.8464 26.9017 8.97133 26.7664 8.13854 26.4853C7.58625 26.2561 7.08702 25.9157 6.67187 25.4853C6.22933 25.0569 5.89167 24.5322 5.68521 23.952C5.35968 23.1455 5.17913 22.2879 5.15187 21.4186C5.15187 20.0853 5.07187 19.592 5.07187 16.0853C5.07187 12.5786 5.07187 12.0853 5.15187 10.752C5.15785 9.88669 5.31581 9.02921 5.61854 8.21862C5.85327 7.65583 6.21356 7.15416 6.67187 6.75195C7.07696 6.29351 7.57759 5.92941 8.13854 5.68529C8.95128 5.39201 9.80787 5.23873 10.6719 5.23195C12.0052 5.23195 12.4985 5.15195 16.0052 5.15195C19.5119 5.15195 20.0052 5.15195 21.3385 5.23195C22.1849 5.24166 23.0235 5.39495 23.8185 5.68529C24.4244 5.91016 24.9683 6.27575 25.4052 6.75195C25.8421 7.16152 26.1836 7.66226 26.4052 8.21862C26.7015 9.03053 26.8549 9.88766 26.8585 10.752C26.9252 12.0853 26.9385 12.5786 26.9385 16.0853C26.9385 19.592 26.9252 20.0853 26.8585 21.4186ZM16.0052 9.24529C14.653 9.24792 13.3318 9.65132 12.2087 10.4045C11.0857 11.1577 10.211 12.2269 9.69539 13.477C9.17973 14.727 9.04617 16.1019 9.3116 17.4279C9.57703 18.7538 10.2295 19.9713 11.1866 20.9266C12.1438 21.8818 13.3626 22.532 14.689 22.7948C16.0155 23.0577 17.3901 22.9214 18.6392 22.4033C19.8882 21.8852 20.9557 21.0085 21.7067 19.884C22.4577 18.7595 22.8585 17.4375 22.8585 16.0853C22.8603 15.1854 22.6841 14.2941 22.3402 13.4626C21.9962 12.631 21.4913 11.8757 20.8544 11.24C20.2174 10.6043 19.4611 10.1009 18.6289 9.75852C17.7967 9.41619 16.9051 9.24177 16.0052 9.24529ZM16.0052 20.5253C15.1271 20.5253 14.2686 20.2649 13.5385 19.777C12.8083 19.2891 12.2392 18.5957 11.9032 17.7844C11.5671 16.9731 11.4792 16.0804 11.6505 15.2191C11.8218 14.3578 12.2447 13.5667 12.8657 12.9457C13.4866 12.3248 14.2777 11.9019 15.139 11.7306C16.0003 11.5593 16.893 11.6472 17.7043 11.9833C18.5156 12.3193 19.2091 12.8884 19.6969 13.6186C20.1848 14.3487 20.4452 15.2071 20.4452 16.0853C20.4452 16.6684 20.3304 17.2457 20.1072 17.7844C19.8841 18.3231 19.5571 18.8125 19.1448 19.2248C18.7325 19.6371 18.243 19.9642 17.7043 20.1873C17.1656 20.4104 16.5883 20.5253 16.0052 20.5253Z" fill="#2C2C2C"/>
</svg>
